HIERARCHY
ROOT root
{
	OFFSET	0	13.1	24.9
	CHANNELS 6  Xposition Yposition Zposition Xrotation Yrotation Zrotation
	JOINT spine_1
	{
		OFFSET	0	9.99999	0
		CHANNELS 3  Xrotation Yrotation Zrotation
		JOINT spine_2
		{
			OFFSET	0	112	-10
			CHANNELS 3  Xrotation Yrotation Zrotation
			JOINT spine_3
			{
				OFFSET	0	206.5	19.3
				CHANNELS 3  Xrotation Yrotation Zrotation
				JOINT spine_4
				{
					OFFSET	0	110.4	14.6
					CHANNELS 3  Xrotation Yrotation Zrotation
					JOINT neck_1
					{
						OFFSET	0	71.8	-50.3
						CHANNELS 3  Xrotation Yrotation Zrotation
						JOINT neck_2
						{
							OFFSET	0	86.2	-25.8
							CHANNELS 3  Xrotation Yrotation Zrotation
							JOINT head_ee
							{
								OFFSET	0	179.8	-8.7
								CHANNELS 3  Xrotation Yrotation Zrotation
								End Site
								{
									OFFSET	1	0	0
								}
							}
						}
					}
					JOINT left_clavicle
					{
						OFFSET	-43.2	22.4	-70.8
						CHANNELS 3  Xrotation Yrotation Zrotation
						JOINT left_shoulder
						{
							OFFSET	-93.9	-5.79999	48.7
							CHANNELS 3  Xrotation Yrotation Zrotation
							JOINT left_elbow
							{
								OFFSET	-291.4	-30.8	15.2
								CHANNELS 3  Xrotation Yrotation Zrotation
								JOINT left_lowarm_twist
								{
									OFFSET	-110.7	-3.89999	13.6
									CHANNELS 3  Xrotation Yrotation Zrotation
									JOINT left_hand
									{
										OFFSET	-110.7	-3.89999	13.6
										CHANNELS 3  Xrotation Yrotation Zrotation
										JOINT left_ee
										{
											OFFSET	-80.8	-5.10001	12.1
											CHANNELS 3  Xrotation Yrotation Zrotation
											End Site
											{
												OFFSET	1	0	0
											}
										}
									}
								}
							}
						}
					}
					JOINT right_clavicle
					{
						OFFSET	43.2	22.4	-70.8
						CHANNELS 3  Xrotation Yrotation Zrotation
						JOINT right_shoulder
						{
							OFFSET	93.9	-5.79999	48.7
							CHANNELS 3  Xrotation Yrotation Zrotation
							JOINT right_elbow
							{
								OFFSET	291.4	-30.8	15.2
								CHANNELS 3  Xrotation Yrotation Zrotation
								JOINT right_lowarm_twist
								{
									OFFSET	110.7	-3.89999	13.6
									CHANNELS 3  Xrotation Yrotation Zrotation
									JOINT right_hand
									{
										OFFSET	110.7	-3.89999	13.6
										CHANNELS 3  Xrotation Yrotation Zrotation
										JOINT right_ee
										{
											OFFSET	80.8	-5.10001	12.1
											CHANNELS 3  Xrotation Yrotation Zrotation
											End Site
											{
												OFFSET	1	0	0
											}
										}
									}
								}
							}
						}
					}
				}
			}
		}
	}
	JOINT left_hip
	{
		OFFSET	-82.8	-127.5	0.300001
		CHANNELS 3  Xrotation Yrotation Zrotation
		JOINT left_knee
		{
			OFFSET	-28.2	-396.7	2.2
			CHANNELS 3  Xrotation Yrotation Zrotation
			JOINT left_ankle
			{
				OFFSET	-11.7	-411.3	35.4
				CHANNELS 3  Xrotation Yrotation Zrotation
				JOINT left_toes
				{
					OFFSET	0	-60	-88.6
					CHANNELS 3  Xrotation Yrotation Zrotation
					JOINT left_foot_ee
					{
						OFFSET	-22.5	-16.5	-42.2
						CHANNELS 3  Xrotation Yrotation Zrotation
						End Site
						{
							OFFSET	1	0	0
						}
					}
				}
			}
		}
	}
	JOINT right_hip
	{
		OFFSET	82.8	-127.5	0.300001
		CHANNELS 3  Xrotation Yrotation Zrotation
		JOINT right_knee
		{
			OFFSET	28.2	-396.7	2.2
			CHANNELS 3  Xrotation Yrotation Zrotation
			JOINT right_ankle
			{
				OFFSET	11.7	-411.3	35.4
				CHANNELS 3  Xrotation Yrotation Zrotation
				JOINT right_toes
				{
					OFFSET	0	-60	-88.6
					CHANNELS 3  Xrotation Yrotation Zrotation
					JOINT right_foot_ee
					{
						OFFSET	22.5	-16.5	-42.2
						CHANNELS 3  Xrotation Yrotation Zrotation
						End Site
						{
							OFFSET	1	0	0
						}
					}
				}
			}
		}
	}
}
MOTION
Frames: 16
Frame Time: 0.02
1107.9 730.703 -1572.78 -118.637 83.9355 109.026 2.6509 0.902914 7.17019 2.67936 0.44604 7.21282 2.72915 -0.741138 7.18862 2.65735 0.400425 7.21548 -15.3071 -1.26596 -13.7875 -14.8024 5.73327 -13.4667 -0.0 0.0 -0.0 -10.1811 8.91495 -17.4495 -12.8425 -41.2169 66.7129 0.195874 -5.54221 0.00948086 -11.3642 -0.536085 1.34808 1.74635 16.674 17.7853 -0.0 0.0 -0.0 10.781 -19.9269 -18.7371 -9.27559 28.3838 -75.9146 2.09466 46.0525 -0.890346 9.1833 -0.231907 1.1489 2.11567 15.0171 -7.83257 0.0 0.0 0.0 20.2353 -3.04715 4.3628 -7.21119 0.229041 1.08227 11.4602 3.34253 -1.62545 -38.8299 0.0 0.0 -0.0 0.0 -0.0 12.3328 6.78354 0.8923 -5.4765 -0.186429 -0.819487 35.5299 -13.6899 4.495 -9.14446 0.0 0.0 0.0 0.0 0.0 
1103.06 729.014 -1571.04 -106.026 83.7998 97.07 2.70797 1.07112 7.06513 2.7355 0.620546 7.1186 2.8062 -0.542473 7.12494 2.73592 0.586657 7.12146 -15.5814 -1.78295 -14.0404 -15.0501 4.82624 -13.8632 -0.0 0.0 -0.0 -10.2332 8.58611 -17.6729 -13.8855 -40.8891 66.4148 0.244688 -6.91135 0.0147758 -11.1082 -0.521092 1.31895 2.13635 18.1699 20.7813 -0.0 0.0 -0.0 10.8605 -18.9672 -19.0505 -9.03978 28.4975 -75.4693 2.15739 46.8963 -0.93583 6.97582 -0.193036 0.869618 2.49133 18.2248 -8.87383 0.0 0.0 0.0 18.2149 -2.62308 3.94248 -2.52469 0.0956866 0.37561 13.1842 4.03978 -1.85616 -38.5409 0.0 0.0 -0.0 0.0 -0.0 13.1898 6.05897 0.268862 -5.3493 -0.182991 -0.800268 35.4627 -13.3629 4.48481 -10.1997 0.0 0.0 0.0 0.0 0.0 
1098.56 733.888 -1568.62 -96.0278 83.8884 87.4312 2.45502 1.02075 6.80785 2.48059 0.586523 6.85867 2.54667 -0.565108 6.86046 2.48144 0.522843 6.8638 -16.9167 -2.03202 -13.9326 -16.3909 3.95119 -13.8112 -0.0 0.0 -0.0 -10.0849 8.11535 -17.5523 -13.8614 -40.8285 68.0821 0.245018 -6.92057 0.0148155 -11.4732 -0.542505 1.36045 2.57614 18.4938 23.7828 -0.0 0.0 -0.0 10.9083 -19.1994 -19.086 -9.22233 28.7276 -75.3194 2.16254 46.9645 -0.939594 5.34538 -0.15743 0.664393 2.64657 22.0172 -8.07609 0.0 0.0 0.0 17.9692 -3.11665 3.87748 -2.47294 0.0938919 0.36787 17.7255 3.74701 -2.44961 -36.3688 0.0 0.0 -0.0 0.0 -0.0 13.7633 6.39119 0.0196165 -7.54824 -0.236396 -1.13347 33.1081 -13.9915 4.2543 -12.5166 0.0 0.0 0.0 0.0 0.0 
1095.11 738.193 -1567.4 -91.3156 82.9242 83.2641 2.64708 1.06781 6.63721 2.67134 0.644267 6.69137 2.74145 -0.456827 6.7067 2.67925 0.60567 6.69495 -14.6679 -3.06112 -13.0162 -14.1954 1.98837 -13.3154 -0.0 0.0 -0.0 -9.84084 7.61037 -17.2504 -13.841 -40.5901 68.4506 0.236422 -6.68002 0.0137977 -11.3518 -0.535351 1.34666 2.84657 19.3453 25.8313 -0.0 0.0 -0.0 10.6979 -19.646 -18.6543 -9.18074 28.563 -75.0017 2.11012 46.2628 -0.901491 3.45841 -0.108949 0.428236 2.7523 23.6544 -7.96061 0.0 0.0 0.0 15.5585 -3.87976 3.2313 3.33033 -0.1514 -0.488501 19.149 3.1281 -2.63126 -35.9377 0.0 0.0 -0.0 0.0 -0.0 14.7738 6.55302 -0.238504 -7.78704 -0.241424 -1.16977 31.7945 -13.2806 4.11033 -13.4547 0.0 0.0 0.0 0.0 0.0 
1089.76 736.35 -1561.82 -81.929 82.9133 74.0178 2.61518 1.20701 6.54543 2.63865 0.788996 6.60859 2.72505 -0.301396 6.64852 2.66421 0.75005 6.6131 -16.8576 -3.62729 -13.5123 -16.3463 0.660305 -13.9666 -0.0 0.0 -0.0 -9.78259 7.66619 -17.1157 -13.4403 -40.6475 69.604 0.244357 -6.90207 0.0147359 -11.3169 -0.533303 1.3427 3.11563 19.7734 27.7783 -0.0 0.0 -0.0 10.4634 -19.4846 -18.2997 -9.41259 28.5194 -75.0948 2.0862 45.9367 -0.884262 2.34033 -0.0765596 0.289092 2.87656 25.1342 -8.02578 0.0 0.0 0.0 15.3782 -4.5976 3.63689 2.40837 -0.106642 -0.354139 21.1531 2.66415 -2.8809 -34.7479 0.0 0.0 -0.0 0.0 -0.0 14.7716 7.13564 -0.0769351 -8.41618 -0.253947 -1.26551 33.0227 -12.9017 4.23474 -15.3785 0.0 0.0 0.0 0.0 0.0 
1084.8 736.426 -1557.18 -83.6783 82.5154 76.0426 2.6534 1.0802 6.56549 2.67712 0.661168 6.62058 2.74849 -0.427606 6.63968 2.68757 0.624015 6.62417 -16.6304 -3.03752 -12.4379 -16.1983 1.23542 -12.7515 -0.0 0.0 -0.0 -9.70791 7.25646 -17.111 -12.6876 -40.7253 70.3931 0.251325 -7.09693 0.0155852 -11.6122 -0.550731 1.37623 3.28321 20.0849 29.0152 -0.0 0.0 -0.0 10.2373 -19.1566 -17.9868 -10.0136 28.8931 -74.8213 2.00232 44.7616 -0.82458 1.52325 -0.0511742 0.187814 3.02814 27.1019 -7.99268 0.0 0.0 0.0 14.8641 -5.24288 3.48255 2.12154 -0.0931602 -0.312196 22.2574 2.33416 -3.01619 -33.9586 0.0 0.0 -0.0 0.0 -0.0 15.1814 7.11721 -0.216233 -8.76522 -0.260441 -1.31867 30.5447 -12.9515 3.97441 -16.4684 0.0 0.0 0.0 0.0 0.0 
1081.65 737.371 -1551.94 -68.536 81.7335 61.3402 2.62874 1.15181 6.55989 2.65236 0.732988 6.61952 2.73227 -0.357981 6.65022 2.67128 0.694431 6.62366 -16.257 -3.79862 -13.5508 -15.7423 0.503449 -14.0547 -0.0 0.0 -0.0 -9.50619 6.88748 -16.8379 -12.3276 -40.8389 70.965 0.262857 -7.41901 0.0170421 -11.2962 -0.53209 1.34035 3.42753 20.3416 30.0864 -0.0 0.0 -0.0 10.3568 -19.4927 -18.1239 -10.6971 28.0686 -74.1788 1.97987 44.4388 -0.808819 2.67003 -0.0863928 0.330058 2.75962 24.887 -7.3893 0.0 0.0 0.0 15.6611 -5.56347 2.61636 -1.26897 0.0501666 0.188276 23.4968 3.70739 -3.15918 -33.7807 0.0 0.0 -0.0 0.0 -0.0 15.6578 5.08989 -0.183513 -9.15602 -0.267327 -1.37825 30.8665 -13.8084 4.01661 -18.5525 0.0 0.0 0.0 0.0 0.0 
1075.04 738.512 -1551.64 -71.2153 81.9845 64.2532 2.50042 1.14502 6.43341 2.52313 0.734213 6.49289 2.6026 -0.350825 6.52471 2.54389 0.681807 6.49858 -15.9972 -3.70071 -13.7438 -15.4684 0.86946 -14.2024 -0.0 0.0 -0.0 -9.30409 6.86251 -16.4465 -12.2638 -42.8628 70.2687 0.285717 -8.05608 0.0201199 -12.2609 -0.589617 1.44955 3.46695 20.6416 30.4315 -0.0 0.0 -0.0 10.2485 -19.2133 -17.9955 -11.9618 27.7961 -73.6668 1.86394 42.7133 -0.728897 0.725846 -0.0250086 0.0893284 2.73111 25.1158 -7.08838 0.0 0.0 0.0 15.1482 -5.8519 2.14079 -3.55739 0.130035 0.530375 23.7015 2.24551 -3.18874 -33.1096 0.0 0.0 -0.0 0.0 -0.0 15.4835 5.27696 -0.271672 -10.1801 -0.283442 -1.53455 30.6876 -12.8587 3.98899 -19.6818 0.0 0.0 0.0 0.0 0.0 
1073.73 739.433 -1547.9 -64.9446 81.1711 58.5156 2.54279 1.15819 6.38584 2.56514 0.750364 6.44625 2.64564 -0.322149 6.48162 2.58776 0.703366 6.45152 -15.9678 -3.56802 -13.2811 -15.4738 0.860965 -13.7219 -0.0 0.0 -0.0 -9.28721 6.24034 -16.6198 -11.6997 -41.9617 69.9268 0.355276 -9.98166 0.0310254 -12.3712 -0.596315 1.46198 3.60506 19.9845 31.2694 -0.0 0.0 -0.0 10.3412 -16.438 -18.6086 -12.932 27.5709 -73.4725 1.66817 39.5659 -0.600056 0.68635 -0.023677 0.0844597 2.57341 24.0023 -6.61587 0.0 0.0 0.0 16.2189 -6.04559 1.61987 -5.74365 0.19351 0.859873 24.7496 3.88109 -3.30556 -33.3331 0.0 0.0 -0.0 0.0 -0.0 15.0064 4.21113 -0.96483 -8.08421 -0.247471 -1.21498 29.4883 -12.3108 3.85494 -21.8901 0.0 0.0 0.0 0.0 0.0 
1070.97 738.619 -1546.93 -66.445 80.4854 60.0602 2.56469 1.13729 6.33888 2.58673 0.732474 6.39807 2.66451 -0.32981 6.43127 2.60751 0.687899 6.403 -15.9958 -3.19607 -13.0619 -15.5195 1.43992 -13.392 -0.0 0.0 -0.0 -9.38878 6.52648 -16.7266 -9.71109 -42.2503 69.6677 0.386701 -10.8444 0.0367055 -12.6615 -0.614051 1.49462 3.65714 20.2873 31.7103 -0.0 0.0 -0.0 10.4157 -15.1776 -18.9335 -12.8384 26.8935 -73.4632 1.46111 35.8945 -0.47328 0.534215 -0.0185162 0.0657145 2.30478 23.6936 -5.01177 0.0 0.0 0.0 16.938 -6.10365 1.39716 -5.93381 0.198435 0.88864 24.4514 3.28166 -3.27271 -33.7456 0.0 0.0 -0.0 0.0 -0.0 14.7826 2.77559 -0.98865 -5.96718 -0.199289 -0.89369 28.8514 -11.4546 3.77946 -22.3282 0.0 0.0 0.0 0.0 0.0 
1062.33 738.17 -1548.8 -77.4765 81.5771 71.6096 2.63964 0.825574 6.31468 2.66171 0.422911 6.3542 2.70384 -0.625442 6.33754 2.64804 0.381219 6.35683 -16.1485 -3.31875 -13.4061 -15.6466 1.36793 -13.7575 -0.0 0.0 -0.0 -9.0932 4.44112 -16.8119 -10.2295 -42.5481 67.6261 0.472461 -13.1728 0.0545523 -13.0387 -0.637339 1.53689 3.59968 20.0378 31.2427 -0.0 0.0 -0.0 10.3268 -14.9041 -18.8183 -14.9835 27.1174 -73.0059 1.33144 33.4054 -0.399536 -0.748857 0.0269865 -0.0918257 2.34752 21.8835 -6.16588 0.0 0.0 0.0 16.8929 -6.05813 1.10475 -7.62712 0.238073 1.14546 25.1122 4.23236 -3.34665 -33.6474 0.0 0.0 -0.0 0.0 -0.0 13.8173 3.04009 -1.49918 -6.91851 -0.22241 -1.03785 30.9009 -10.6777 3.99662 -23.0859 0.0 0.0 0.0 0.0 0.0 
1060.94 740.079 -1546.78 -70.9743 81.4107 65.2399 2.43389 0.920758 6.27034 2.45559 0.520709 6.31597 2.50964 -0.543561 6.31405 2.45435 0.458399 6.32078 -16.0186 -3.03465 -13.1512 -15.5369 1.79634 -13.4227 -0.0 0.0 -0.0 -8.83958 4.42446 -16.3046 -9.75846 -42.6963 66.579 0.522059 -14.4999 0.0664145 -13.0224 -0.636328 1.53507 3.56236 19.7845 30.9185 -0.0 0.0 -0.0 10.207 -14.2462 -18.7019 -15.9683 26.8478 -73.0651 1.26889 32.1509 -0.365672 -1.01193 0.0367523 -0.124001 2.20661 20.5957 -5.84869 0.0 0.0 0.0 17.4567 -6.02075 0.730116 -9.72423 0.276614 1.46494 24.0081 4.71728 -3.21695 -34.1682 0.0 0.0 -0.0 0.0 -0.0 13.4751 1.97232 -1.44522 -6.4576 -0.211507 -0.967959 31.9803 -10.7893 4.11079 -23.6778 0.0 0.0 0.0 0.0 0.0 
1057.66 739.076 -1547.41 -86.057 80.9912 80.7349 2.43401 0.84784 6.13779 2.45484 0.456321 6.17909 2.50079 -0.585351 6.16825 2.44795 0.394237 6.18335 -15.9642 -3.38059 -12.8938 -15.4988 0.995164 -13.2945 -0.0 0.0 -0.0 -8.70128 4.51613 -15.998 -7.757 -43.0832 65.4653 0.576885 -15.9486 0.0808128 -14.5122 -0.730993 1.70057 2.88794 20.0166 26.282 -0.0 0.0 -0.0 10.3069 -13.9086 -18.9273 -16.9935 26.4641 -72.5574 1.13793 29.409 -0.298636 -1.0764 0.0391679 -0.131879 1.50333 15.3517 -3.55742 0.0 0.0 0.0 17.9761 -6.00596 0.691478 -8.62932 0.257951 1.29797 24.9595 4.49239 -3.32839 -34.3559 0.0 0.0 -0.0 0.0 -0.0 13.4574 1.82477 -1.95266 -4.83523 -0.168663 -0.722676 27.8383 -10.597 3.66254 -24.4005 0.0 0.0 0.0 0.0 0.0 
1052.71 739.571 -1546.03 -94.6335 80.6488 89.4488 2.39159 0.776158 5.99583 2.41149 0.393765 6.03288 2.45001 -0.628096 6.01308 2.39975 0.327655 6.03682 -15.1889 -4.41671 -13.3564 -14.6881 -0.529028 -14.0616 -0.0 0.0 -0.0 -8.51392 3.89961 -15.808 -5.84812 -43.4607 65.1575 0.629965 -17.3315 0.0960136 -16.2543 -0.847117 1.89093 2.40884 19.4884 22.9443 -0.0 0.0 -0.0 10.4551 -13.6837 -19.2248 -18.2265 26.0499 -72.3979 0.949185 25.1824 -0.21202 -0.629927 0.0226208 -0.0772657 1.0333 10.7902 -2.38697 0.0 0.0 0.0 17.8524 -5.67754 1.23023 -7.97898 0.245356 1.19897 25.1762 5.14053 -3.35224 -34.4382 0.0 0.0 -0.0 0.0 -0.0 13.3154 1.68961 -2.30437 -3.58545 -0.13093 -0.534589 27.9447 -8.53013 3.66703 -24.682 0.0 0.0 0.0 0.0 0.0 
1050.21 742.491 -1548.13 -102.541 80.0397 97.5268 2.30978 0.804218 5.90741 2.32908 0.427364 5.94642 2.37107 -0.588364 5.93271 2.32216 0.35427 5.95121 -15.6163 -4.57794 -13.8007 -15.082 -0.682912 -14.5385 -0.0 0.0 -0.0 -8.2957 4.06795 -15.3193 -2.8792 -43.6145 65.0603 0.657649 -18.0447 0.104425 -18.2816 -0.989498 2.10796 1.73999 21.0388 19.0755 -0.0 0.0 -0.0 10.3309 -13.8212 -18.9825 -19.9686 25.6949 -72.3232 0.866723 23.236 -0.1782 -0.982859 0.0356657 -0.120447 0.572494 7.65109 -0.617773 0.0 0.0 0.0 17.305 -6.20587 0.782963 -7.48341 0.235005 1.12362 25.851 3.91736 -3.43237 -34.4939 0.0 0.0 -0.0 0.0 -0.0 13.1835 1.54479 -2.01872 -2.75628 -0.103633 -0.410265 26.509 -7.26619 3.50393 -25.5451 0.0 0.0 0.0 0.0 0.0 
1044.99 744.836 -1548.58 -112.264 79.7813 107.027 2.26071 0.759056 5.78593 2.27924 0.389982 5.82234 2.31682 -0.609741 5.8035 2.26999 0.312861 5.82697 -15.03 -5.02399 -12.6686 -14.582 -2.06621 -13.6013 -0.0 0.0 -0.0 -8.19025 3.52251 -15.2674 -1.12813 -43.8198 64.013 0.77487 -20.9991 0.14361 -20.3751 -1.14452 2.32668 0.531903 23.0515 12.3426 -0.0 0.0 -0.0 10.6894 -15.4718 -19.3683 -22.0409 24.9298 -71.4742 0.661264 18.1374 -0.105548 0.0550049 -0.00193476 0.00675837 0.0717086 4.19446 1.29321 0.0 0.0 0.0 15.9198 -6.26929 0.869112 -6.51953 0.213005 0.977345 24.7137 1.21351 -3.31247 -34.802 0.0 0.0 -0.0 0.0 -0.0 12.5956 1.63321 -1.68953 -3.23735 -0.119689 -0.482349 26.9336 -6.24423 3.55158 -26.1143 0.0 0.0 0.0 0.0 0.0 
